<svg width="0"
      height="0"
      class="hidden">
  <symbol xmlns="http://www.w3.org/2000/svg"
          viewBox="0 0 50 50"
          id="checked">
    <path d="M39.583 6.25H10.417a4.166 4.166 0 00-4.167 4.167v29.166a4.166 4.166 0 004.167 4.167h29.166a4.166 4.166 0 004.167-4.167V10.417a4.166 4.166 0 00-4.167-4.167zm-18.75 29.167L10.417 25l2.937-2.938 7.48 7.459 15.812-15.813 2.937 2.959-18.75 18.75z" fill="#26c9c3"></path>
  </symbol>
  <symbol fill="none"
          xmlns="http://www.w3.org/2000/svg"
          viewBox="0 0 50 50"
          id="checkmark">
    <path d="M25 4.167C13.5 4.167 4.167 13.5 4.167 25 4.167 36.5 13.5 45.833 25 45.833c11.5 0 20.833-9.333 20.833-20.833C45.833 13.5 36.5 4.167 25 4.167zm-4.167 31.25L10.417 25l2.937-2.938 7.48 7.459 15.812-15.813 2.937 2.959-18.75 18.75z"
          fill="#26c9c3"></path>
  </symbol>
  <symbol fill="none"
          xmlns="http://www.w3.org/2000/svg"
          viewBox="0 0 50 50"
          id="invisible">
    <path d="M25 14.583c5.75 0 10.417 4.667 10.417 10.417a10.25 10.25 0 01-.74 3.802l6.094 6.094A24.742 24.742 0 0047.927 25C44.312 15.854 35.427 9.375 25 9.375c-2.917 0-5.708.52-8.302 1.458l4.5 4.49a10.47 10.47 0 013.802-.74zM4.167 8.906l4.75 4.75.947.948A24.675 24.675 0 002.084 25C5.686 34.146 14.583 40.625 25 40.625c3.23 0 6.312-.625 9.135-1.76l.886.885 6.073 6.083 2.656-2.645L6.823 6.25 4.167 8.906zm11.52 11.51l3.22 3.22A6.599 6.599 0 0018.75 25 6.255 6.255 0 0025 31.25c.469 0 .917-.063 1.354-.156l3.219 3.218C28.187 35 26.646 35.417 25 35.417c-5.75 0-10.417-4.667-10.417-10.417 0-1.646.417-3.188 1.104-4.583zm8.97-1.635l6.562 6.563.03-.344A6.255 6.255 0 0025 18.75l-.343.031z"
          fill="#26c9c3"></path>
  </symbol>
  <symbol fill="none"
          xmlns="http://www.w3.org/2000/svg"
          viewBox="0 0 50 50"
          id="un-check">
    <path d="M39.583 10.417v29.166H10.417V10.417h29.166zm0-4.167H10.417a4.179 4.179 0 00-4.167 4.167v29.166a4.179 4.179 0 004.167 4.167h29.166a4.179 4.179 0 004.167-4.167V10.417a4.179 4.179 0 00-4.167-4.167z"
          fill="#26c9c3"></path>
  </symbol>
  <symbol fill="none"
          xmlns="http://www.w3.org/2000/svg"
          viewBox="0 0 50 50"
          id="visible">
    <path d="M25 9.375C14.583 9.375 5.687 15.855 2.083 25 5.687 34.146 14.583 40.625 25 40.625c10.417 0 19.312-6.48 22.917-15.625C44.312 15.854 35.417 9.375 25 9.375zm0 26.042c-5.75 0-10.417-4.667-10.417-10.417S19.25 14.583 25 14.583 35.417 19.25 35.417 25 30.75 35.417 25 35.417zm0-16.667A6.242 6.242 0 0018.75 25 6.242 6.242 0 0025 31.25 6.242 6.242 0 0031.25 25 6.242 6.242 0 0025 18.75z"
          fill="#26c9c3"></path>
  </symbol>
  <symbol fill="none"
          xmlns="http://www.w3.org/2000/svg"
          viewBox="0 0 50 50"
          id="warning">
    <path d="M1.389 44.444H48.61L25 4.167 1.389 44.444zm25-6.944H23.61v-2.778h2.778V37.5zm0-6.945H23.61v-9.722h2.778v9.723z"
          fill="#26c9c3"></path>
  </symbol>
</svg>